<?xml version="1.0" encoding="UTF-8"?> <svg xmlns="http://www.w3.org/2000/svg" width="80" height="81" viewBox="0 0 80 81" fill="none"><path d="M25.028 26.4844L19.7473 26.8923C18.2779 27.0059 16.9692 27.776 16.1566 29.0052L10.0666 38.2161C9.45025 39.1482 9.35228 40.3147 9.8043 41.3366C10.2564 42.3585 11.1856 43.0707 12.2898 43.2417L17.1248 43.9906C18.2559 37.9882 20.9635 32.0006 25.028 26.4844Z" fill="url(#paint0_linear_1168_5802)"></path><path d="M36.5088 63.3748L37.2577 68.2099C37.4288 69.3141 38.1409 70.2432 39.1627 70.6953C39.5878 70.8833 40.0378 70.9762 40.4855 70.9762C41.1145 70.9762 41.739 70.793 42.2834 70.433L51.4945 64.343C52.7237 63.5303 53.4938 62.2215 53.6071 60.7524L54.0151 55.4717C48.4987 59.5363 42.5112 62.2439 36.5088 63.3748Z" fill="url(#paint1_linear_1168_5802)"></path><path d="M34.6901 60.0235C34.858 60.0235 35.0268 60.0097 35.1952 59.9816C37.71 59.5612 40.1338 58.8528 42.4459 57.9257L22.5734 38.0532C21.6463 40.3652 20.938 42.789 20.5175 45.3039C20.3518 46.2952 20.6843 47.3051 21.3949 48.0158L32.4834 59.1043C33.0734 59.6941 33.8697 60.0235 34.6901 60.0235Z" fill="url(#paint2_linear_1168_5802)"></path><path d="M65.6161 37.0479C70.479 27.6463 70.6591 17.7111 70.4049 13.0516C70.3179 11.4551 69.0451 10.1823 67.4484 10.0952C66.6897 10.0538 65.7906 10.0239 64.7771 10.0239C59.5669 10.0239 51.3228 10.8131 43.4522 14.8841C37.1972 18.1195 28.9953 25.2433 24.1562 34.6054C24.2134 34.65 24.2692 34.6974 24.3218 34.75L45.7503 56.1785C45.8029 56.2311 45.8501 56.2868 45.8948 56.3439C55.2569 51.5048 62.3807 43.3028 65.6161 37.0479ZM44.9638 22.9095C48.4449 19.4285 54.1092 19.4281 57.5905 22.9095C59.2769 24.5958 60.2056 26.8381 60.2056 29.2229C60.2056 31.6078 59.2769 33.8501 57.5905 35.5364C55.8502 37.2767 53.5633 38.147 51.2772 38.1473C48.9905 38.1474 46.7047 37.2772 44.9638 35.5364C43.2774 33.8501 42.3486 31.6078 42.3486 29.2229C42.3486 26.8381 43.2774 24.5958 44.9638 22.9095Z" fill="url(#paint3_linear_1168_5802)"></path><path d="M47.488 33.0108C49.5767 35.0995 52.9755 35.0996 55.0642 33.0108C56.076 31.9989 56.6332 30.6536 56.6332 29.2227C56.6332 27.7917 56.076 26.4465 55.0642 25.4347C54.0199 24.3903 52.648 23.8682 51.2761 23.8682C49.9043 23.8682 48.5324 24.3903 47.4881 25.4347C46.4763 26.4465 45.9189 27.7917 45.9189 29.2227C45.9189 30.6536 46.4762 31.999 47.488 33.0108Z" fill="url(#paint4_linear_1168_5802)"></path><path d="M11.3463 60.2546C11.8033 60.2546 12.2604 60.0804 12.6089 59.7315L18.4391 53.9014C19.1364 53.204 19.1364 52.0734 18.4391 51.3761C17.7418 50.6787 16.6111 50.6787 15.9137 51.3761L10.0836 57.2062C9.3862 57.9036 9.3862 59.0342 10.0836 59.7315C10.4323 60.0802 10.8893 60.2546 11.3463 60.2546Z" fill="url(#paint5_linear_1168_5802)"></path><path d="M23.7808 56.7191C23.0835 56.0217 21.9528 56.0217 21.2554 56.7191L10.0465 67.928C9.34909 68.6254 9.34909 69.756 10.0465 70.4534C10.3952 70.8021 10.8522 70.9763 11.3092 70.9763C11.7662 70.9763 12.2233 70.8021 12.5718 70.4532L23.7806 59.2444C24.4781 58.5471 24.4781 57.4165 23.7808 56.7191Z" fill="url(#paint6_linear_1168_5802)"></path><path d="M26.5991 62.0614L20.7691 67.8915C20.0717 68.5889 20.0717 69.7195 20.7691 70.4168C21.1178 70.7655 21.5748 70.9399 22.0317 70.9399C22.4887 70.9399 22.9458 70.7657 23.2944 70.4168L29.1245 64.5867C29.8219 63.8893 29.8219 62.7587 29.1245 62.0614C28.4272 61.364 27.2965 61.364 26.5991 62.0614Z" fill="url(#paint7_linear_1168_5802)"></path><defs><linearGradient id="paint0_linear_1168_5802" x1="9.52344" y1="43.9906" x2="27.1787" y2="29.021" gradientUnits="userSpaceOnUse"><stop stop-color="#942050"></stop><stop offset="1" stop-color="#FF2E54"></stop></linearGradient><linearGradient id="paint1_linear_1168_5802" x1="36.5088" y1="70.9762" x2="52.3108" y2="53.8951" gradientUnits="userSpaceOnUse"><stop stop-color="#942050"></stop><stop offset="1" stop-color="#FF2E54"></stop></linearGradient><linearGradient id="paint2_linear_1168_5802" x1="20.4756" y1="60.0235" x2="42.914" y2="38.5422" gradientUnits="userSpaceOnUse"><stop stop-color="#942050"></stop><stop offset="1" stop-color="#FF2E54"></stop></linearGradient><linearGradient id="paint3_linear_1168_5802" x1="24.1563" y1="56.3439" x2="71.4632" y2="11.0549" gradientUnits="userSpaceOnUse"><stop stop-color="#942050"></stop><stop offset="1" stop-color="#FF2E54"></stop></linearGradient><linearGradient id="paint4_linear_1168_5802" x1="45.9189" y1="34.5773" x2="56.8565" y2="24.1013" gradientUnits="userSpaceOnUse"><stop stop-color="#942050"></stop><stop offset="1" stop-color="#FF2E54"></stop></linearGradient><linearGradient id="paint5_linear_1168_5802" x1="9.56055" y1="60.2546" x2="19.1625" y2="51.0623" gradientUnits="userSpaceOnUse"><stop stop-color="#942050"></stop><stop offset="1" stop-color="#FF2E54"></stop></linearGradient><linearGradient id="paint6_linear_1168_5802" x1="9.52344" y1="70.9763" x2="24.6187" y2="56.525" gradientUnits="userSpaceOnUse"><stop stop-color="#942050"></stop><stop offset="1" stop-color="#FF2E54"></stop></linearGradient><linearGradient id="paint7_linear_1168_5802" x1="20.2461" y1="70.9399" x2="29.848" y2="61.7478" gradientUnits="userSpaceOnUse"><stop stop-color="#942050"></stop><stop offset="1" stop-color="#FF2E54"></stop></linearGradient></defs></svg> 