<?xml version="1.0" encoding="UTF-8"?> <svg xmlns="http://www.w3.org/2000/svg" id="Capa_1" height="512" viewBox="0 0 497 497" width="512"><g><path d="m396.035 349.017h-251.8c-7.399 0-13.396-5.998-13.396-13.396v-322.225c-.001-7.398 5.997-13.396 13.396-13.396h251.8c7.399 0 13.396 5.998 13.396 13.396v322.224c.001 7.399-5.997 13.397-13.396 13.397z" fill="#c8effe"></path><path d="m409.431 13.4v322.22c0 7.4-6 13.4-13.4 13.4h-24.11c7.4 0 13.4-6 13.4-13.4v-322.22c0-7.4-6-13.4-13.4-13.4h24.11c7.4 0 13.4 6 13.4 13.4z" fill="#99e6fc"></path><path d="m321.231 392.696h-251.801c-7.399 0-13.396-5.998-13.396-13.396v-322.225c0-7.399 5.998-13.396 13.396-13.396h251.8c7.399 0 13.396 5.998 13.396 13.396v322.224c.001 7.399-5.997 13.397-13.395 13.397z" fill="#eaf6ff"></path><path d="m334.631 57.07v322.23c0 7.4-6 13.4-13.4 13.4h-23.62c7.4 0 13.4-6 13.4-13.4v-322.23c0-7.39-6-13.39-13.4-13.39h23.62c7.4 0 13.4 6 13.4 13.39z" fill="#99e6fc"></path><path d="m441.991 182.84v256.26c0 18.86-15.29 34.15-34.15 34.15h-350.21c-18.87 0-34.16-15.29-34.16-34.15v-196.49c0-18.86 15.29-34.15 34.16-34.15h156.94c12.79 0 24.42-7.43 29.8-19.04l6.29-13.57c5.38-11.61 17.01-19.04 29.8-19.04h135.5c14.38 0 26.03 11.65 26.03 26.03z" fill="#ffd15b"></path><path d="m441.991 182.84v256.26c0 18.86-15.29 34.15-34.15 34.15h-24.78c18.86 0 34.15-15.29 34.15-34.15v-256.26c0-14.38-11.65-26.03-26.02-26.03h24.77c14.38 0 26.03 11.65 26.03 26.03z" fill="#feb137"></path><path d="m441.991 299.48v139.62c0 18.86-15.29 34.15-34.15 34.15h-171.49c-2.93-5.82-4.58-12.39-4.58-19.35v-130.97c0-23.8 19.3-43.1 43.1-43.1l24.592.003z" fill="#feb137"></path><path d="m430.427 497h-130.963c-23.804 0-43.102-19.297-43.102-43.102v-130.963c0-23.804 19.297-43.102 43.102-43.102h130.963c23.804 0 43.102 19.297 43.102 43.102v130.963c0 23.805-19.298 43.102-43.102 43.102z" fill="#0593fc"></path><path d="m430.427 279.833h-24.592c23.804 0 43.102 19.297 43.102 43.102v130.963c0 23.804-19.297 43.102-43.102 43.102h24.592c23.804 0 43.102-19.297 43.102-43.102v-130.963c0-23.804-19.298-43.102-43.102-43.102z" fill="#0181fa"></path><path d="m188.432 320.73h-108.505c-6.832 0-12.37-5.538-12.37-12.37v-16.157c0-6.832 5.538-12.37 12.37-12.37h108.504c6.832 0 12.37 5.538 12.37 12.37v16.157c0 6.832-5.538 12.37-12.369 12.37z" fill="#eaf6ff"></path><path d="m200.801 292.2v16.16c0 6.83-5.54 12.37-12.37 12.37h-19.9c6.84 0 12.37-5.54 12.37-12.37v-16.16c0-6.83-5.53-12.37-12.37-12.37h19.9c6.83 0 12.37 5.54 12.37 12.37z" fill="#c8effe"></path><path d="m150.577 112.159h-47.796c-7.532 0-13.638-6.106-13.638-13.638 0-7.532 6.106-13.638 13.638-13.638h47.796c7.532 0 13.638 6.106 13.638 13.638 0 7.532-6.106 13.638-13.638 13.638z" fill="#0593fc"></path><path d="m164.211 98.52c0 3.76-1.53 7.18-3.99 9.64-2.47 2.47-5.88 4-9.64 4h-20.28c3.77 0 7.18-1.53 9.65-4 2.47-2.46 3.99-5.88 3.99-9.64 0-7.53-6.1-13.64-13.64-13.64h20.28c7.53 0 13.63 6.11 13.63 13.64z" fill="#0181fa"></path><g><path d="m286.926 106.021h-94.979c-4.143 0-7.5-3.357-7.5-7.5s3.357-7.5 7.5-7.5h94.979c4.143 0 7.5 3.357 7.5 7.5s-3.357 7.5-7.5 7.5z" fill="#99e6fc"></path></g><g><path d="m215.559 148.602h-62.225c-4.143 0-7.5-3.357-7.5-7.5s3.357-7.5 7.5-7.5h62.225c4.143 0 7.5 3.357 7.5 7.5s-3.357 7.5-7.5 7.5z" fill="#99e6fc"></path></g><g><path d="m117.844 148.602h-21.2c-4.143 0-7.5-3.357-7.5-7.5s3.357-7.5 7.5-7.5h21.2c4.143 0 7.5 3.357 7.5 7.5s-3.357 7.5-7.5 7.5z" fill="#99e6fc"></path></g><g><path d="m215.559 179.182h-118.915c-4.143 0-7.5-3.357-7.5-7.5s3.357-7.5 7.5-7.5h118.915c4.143 0 7.5 3.357 7.5 7.5s-3.357 7.5-7.5 7.5z" fill="#99e6fc"></path></g><g><path d="m419.22 404.374-38.893 48.466c-7.895 9.839-22.87 9.839-30.765 0l-38.893-48.466c-9.65-11.39-.717-30.202 14.279-29.767h6.303c4.849 0 8.78-3.931 8.78-8.78v-39.37c0-5.436 4.407-9.843 9.843-9.843h30.139c5.436 0 9.843 4.407 9.843 9.843v39.37c0 4.849 3.931 8.78 8.78 8.78h6.303c14.995-.435 23.933 18.377 14.281 29.767z" fill="#c8effe"></path><path d="m419.22 404.375-38.893 48.466c-7.895 9.839-22.87 9.839-30.765 0l-2.157-2.687c5.866.133 11.781-2.306 15.832-7.355l31.389-38.424c9.652-11.391.714-30.203-14.279-29.767h-6.303c-4.849 0-8.78-3.931-8.78-8.78v-39.37c0-5.436-4.407-9.843-9.843-9.843h24.592c5.436 0 9.843 4.407 9.843 9.843v39.37c0 4.849 3.931 8.78 8.78 8.78h6.303c14.995-.436 23.933 18.375 14.281 29.767z" fill="#99e6fc"></path></g></g></svg> 